<svg width="80" height="80" viewBox="0 0 80 80" fill="none" xmlns="http://www.w3.org/2000/svg">
<path d="M39.999 70.3105C56.7396 70.3105 70.3105 56.7396 70.3105 39.999C70.3105 23.2584 56.7396 9.6875 39.999 9.6875C23.2584 9.6875 9.68751 23.2584 9.68751 39.999C9.68751 56.7396 23.2584 70.3105 39.999 70.3105Z" fill="#0037FF"/>
<path d="M40 0C17.9443 0 0 17.9443 0 40C0 62.0557 17.9443 80 40 80C62.0557 80 80 62.0557 80 40C80 17.9443 62.0557 0 40 0ZM40 77.464C19.3276 77.464 2.53602 60.6724 2.53602 40C2.53602 19.3276 19.3276 2.53602 40 2.53602C60.6724 2.53602 77.464 19.3276 77.464 40C77.464 60.6724 60.634 77.464 40 77.464Z" fill="#0037FF"/>
</svg>
